<svg version="1.2" xmlns="http://www.w3.org/2000/svg" viewBox="0 0 1008 1008" width="1008" height="1008"><defs><linearGradient id="P" gradientUnits="userSpaceOnUse"/><linearGradient id="g1" x2="1" href="#P" gradientTransform="matrix(30.039,30.039,-520.565,520.565,692.416,599.294)"><stop stop-opacity=".13"/><stop offset=".99" stop-opacity="0"/></linearGradient><radialGradient id="g2" cx="0" cy="0" r="1" href="#P" gradientTransform="matrix(60.104,60.104,-60.104,60.104,402.137,829.828)"><stop offset=".5" stop-opacity=".13"/><stop offset=".99" stop-opacity="0"/></radialGradient><radialGradient id="g3" cx="0" cy="0" r="1" href="#P" gradientTransform="matrix(-60.104,-60.104,60.104,-60.104,922.921,309.043)"><stop offset=".5" stop-opacity=".13"/><stop offset=".99" stop-opacity="0"/></radialGradient><linearGradient id="g4" x2="1" href="#P" gradientTransform="matrix(-30.039,30.039,-317.004,-317.004,214,700.83)"><stop stop-opacity=".13"/><stop offset=".99" stop-opacity="0"/></linearGradient><radialGradient id="g5" cx="0" cy="0" r="1" href="#P" gradientTransform="matrix(60.095,-60.095,60.095,60.095,85.21,512.907)"><stop offset=".5" stop-opacity=".13"/><stop offset=".99" stop-opacity="0"/></radialGradient><linearGradient id="g6" x2="1" href="#P" gradientTransform="matrix(610.94,-610.94,203.647,203.647,300.313,788.107)"><stop stop-color="#2987e6"/><stop offset=".99" stop-color="#58c1f5"/></linearGradient></defs><style>.a{fill:url(#g1)}.b{fill:url(#g2)}.c{fill:url(#g3)}.d{fill:url(#g4)}.e{fill:url(#g5)}.f{fill:#195abd}.g{fill:url(#g6)}</style><path class="a" d="m953 339.1l30 30-520.8 520.8-30-30z"/><path class="b" d="m402.1 914.8c-47 0-85-38-85-85 0-47 38-85 85-85 47 0 85 38 85 85 0 47-38 85-85 85z"/><path class="c" d="m922.9 394c-47 0-85-38-85-85 0-47 38-85 85-85 47 0 85 38 85 85 0 47-38 85-85 85z"/><path class="d" d="m372.1 859.9l-30.1 30-317.1-317.1 30-30.1z"/><path class="e" d="m85 597.7c-47 0-85-38-85-85 0-47 38-85 85-85 47 0 85 38 85 85 0 47-38 85-85 85z"/><path class="f" d="m24.9 512.7c-16.6-16.6-16.6-43.5 0-60.1l143.5-143.6c16.6-16.6 43.5-16.6 60.1 0l347.2 347.2c16.6 16.6 16.6 43.5 0 60.1l-143.5 143.6c-16.6 16.6-43.5 16.6-60.1 0z"/><path class="g" d="m779.4 105.4c16.6-16.6 43.5-16.6 60.1 0l143.5 143.5c16.6 16.6 16.6 43.5 0 60.1l-550.8 550.9c-16.6 16.6-43.5 16.6-60.1 0l-143.6-143.6c-16.6-16.6-16.6-43.5 0-60.1z"/></svg>